<svg width="25" height="24" viewBox="0 0 25 24" fill="none" xmlns="http://www.w3.org/2000/svg">
<path d="M14.1545 8.35186C13.5821 8.75995 12.8816 9 12.125 9C10.192 9 8.625 7.433 8.625 5.5C8.625 3.567 10.192 2 12.125 2C13.378 2 14.4772 2.65842 15.0955 3.64814M6.625 20.0872H9.23529C9.57563 20.0872 9.91388 20.1277 10.2438 20.2086L13.0019 20.8789C13.6003 21.0247 14.2238 21.0388 14.8285 20.9214L17.878 20.3281C18.6835 20.1712 19.4246 19.7854 20.0053 19.2205L22.1629 17.1217C22.779 16.5234 22.779 15.5524 22.1629 14.9531C21.6082 14.4134 20.7297 14.3527 20.1021 14.8103L17.5876 16.6449C17.2275 16.9081 16.7893 17.0498 16.3387 17.0498H13.9105L15.4561 17.0498C16.3272 17.0498 17.0329 16.3633 17.0329 15.5159V15.2091C17.0329 14.5055 16.5406 13.892 15.8391 13.7219L13.4536 13.1417C13.0654 13.0476 12.6678 13 12.2681 13C11.3033 13 9.55689 13.7988 9.55689 13.7988L6.625 15.0249M20.625 6.5C20.625 8.433 19.058 10 17.125 10C15.192 10 13.625 8.433 13.625 6.5C13.625 4.567 15.192 3 17.125 3C19.058 3 20.625 4.567 20.625 6.5ZM2.625 14.6L2.625 20.4C2.625 20.9601 2.625 21.2401 2.73399 21.454C2.82987 21.6422 2.98285 21.7951 3.17101 21.891C3.38492 22 3.66495 22 4.225 22H5.025C5.58505 22 5.86508 22 6.07899 21.891C6.26715 21.7951 6.42013 21.6422 6.51601 21.454C6.625 21.2401 6.625 20.9601 6.625 20.4V14.6C6.625 14.0399 6.625 13.7599 6.51601 13.546C6.42013 13.3578 6.26715 13.2049 6.07899 13.109C5.86508 13 5.58505 13 5.025 13L4.225 13C3.66495 13 3.38492 13 3.17101 13.109C2.98285 13.2049 2.82987 13.3578 2.73399 13.546C2.625 13.7599 2.625 14.0399 2.625 14.6Z" stroke="#545454" stroke-width="1.6" stroke-linecap="round" stroke-linejoin="round"/>
</svg>
