<svg width="26" height="27" viewBox="0 0 26 27" fill="none" xmlns="http://www.w3.org/2000/svg">
<path d="M18.75 11C18.75 9.54131 18.1705 8.14236 17.1391 7.11091C16.1076 6.07946 14.7087 5.5 13.25 5.5C11.7913 5.5 10.3924 6.07946 9.36091 7.11091C8.32946 8.14236 7.75 9.54131 7.75 11C7.75 17.4167 5 19.25 5 19.25H21.5C21.5 19.25 18.75 17.4167 18.75 11Z" stroke="#141414" stroke-width="1.6" stroke-linecap="round" stroke-linejoin="round"/>
<path d="M14.8359 23.25C14.6747 23.5278 14.4434 23.7584 14.1651 23.9187C13.8867 24.079 13.5712 24.1634 13.25 24.1634C12.9288 24.1634 12.6133 24.079 12.335 23.9187C12.0567 23.7584 11.8253 23.5278 11.6642 23.25" stroke="#141414" stroke-width="1.6" stroke-linecap="round" stroke-linejoin="round"/>
</svg>
