<svg width="25" height="24" viewBox="0 0 25 24" fill="none" xmlns="http://www.w3.org/2000/svg">
<path d="M10.375 13C10.8044 13.5741 11.3523 14.0491 11.9815 14.3929C12.6107 14.7367 13.3065 14.9411 14.0216 14.9923C14.7367 15.0435 15.4545 14.9403 16.1263 14.6897C16.7981 14.4392 17.4081 14.047 17.915 13.54L20.915 10.54C21.8257 9.59695 22.3297 8.33394 22.3183 7.02296C22.3069 5.71198 21.7811 4.45791 20.854 3.53087C19.927 2.60383 18.6729 2.07799 17.362 2.0666C16.051 2.0552 14.788 2.55918 13.845 3.46997L12.125 5.17997M14.375 11C13.9455 10.4258 13.3976 9.95078 12.7684 9.60703C12.1392 9.26327 11.4434 9.05885 10.7283 9.00763C10.0132 8.95641 9.29537 9.0596 8.62361 9.31018C7.95185 9.56077 7.34184 9.9529 6.83496 10.46L3.83496 13.46C2.92417 14.403 2.42019 15.666 2.43159 16.977C2.44298 18.288 2.96882 19.542 3.89586 20.4691C4.8229 21.3961 6.07697 21.9219 7.38795 21.9333C8.69893 21.9447 9.96194 21.4408 10.905 20.53L12.615 18.82" stroke="#545454" stroke-width="1.6" stroke-linecap="round" stroke-linejoin="round"/>
</svg>
